<svg width="40" height="38" viewBox="0 0 40 38" fill="none" xmlns="http://www.w3.org/2000/svg">
<g opacity="0.95">
<path d="M14.4123 34.2701L14.4122 34.27C12.1799 32.1849 11.3328 29.1298 11.8244 25.8404C12.3164 22.5479 14.1511 19.045 17.247 16.153C22.12 11.6011 28.5138 9.99658 33.2185 11.4782C31.5439 12.1445 29.9644 13.1079 28.6541 14.3319C25.8893 16.9146 24.4099 20.2383 24.4099 23.8876C24.4099 29.2321 20.3828 33.6775 15.0223 34.8028C14.8004 34.6323 14.6141 34.4588 14.4123 34.2701Z" fill="white" stroke="black"/>
<path d="M36.7414 13.5053L36.7413 13.5053L36.7445 13.5082C39.0155 15.593 39.8621 18.6456 39.3607 21.9335C38.8586 25.2256 37.0036 28.7293 33.9065 31.6224C29.0335 36.1743 22.6397 37.7788 17.935 36.2972C19.6096 35.6309 21.1891 34.6675 22.4995 33.4435C25.2643 30.8608 26.7436 27.5371 26.7436 23.8878C26.7436 18.5433 30.7707 14.098 36.1312 12.9726C36.3531 13.1432 36.5394 13.3167 36.7414 13.5053Z" fill="white" stroke="black"/>
<path d="M2.82275 2.67919L2.82281 2.67913L3.30093 2.23246C7.8039 3.21446 11.1529 7.02241 11.1529 11.504C11.1529 14.6087 12.466 17.5428 14.8135 19.7356C15.9175 20.7669 17.1703 21.5738 18.5005 22.1196C14.4932 23.2701 9.19523 21.8412 5.15876 18.0715C2.56272 15.6081 1.01943 12.6312 0.610337 9.83503C0.201672 7.04185 0.92345 4.45335 2.82275 2.67919Z" fill="white" stroke="black"/>
<path d="M21.817 20.329C21.6322 20.5016 21.5111 20.6137 21.3804 20.7108C16.7768 19.8196 13.4034 16.0025 13.4034 11.5041C13.4034 8.4018 12.0924 5.4699 9.74836 3.27765C8.67844 2.21745 7.41219 1.44862 6.03579 0.894238C10.046 -0.266845 15.3556 1.16094 19.399 4.93789C22.0368 7.40193 23.6002 10.3793 24.0192 13.1749C24.4376 15.9669 23.7162 18.5549 21.817 20.329Z" fill="white" stroke="black"/>
</g>
</svg>
