<svg width="42" height="41" viewBox="0 0 42 41" fill="none" xmlns="http://www.w3.org/2000/svg">
<path d="M34.027 7.46143L32.5095 7.86402C30.7295 8.11825 29.3324 9.46022 29.0676 11.1683L28.6482 12.625L30.1657 12.2225C31.9457 11.9682 33.3428 10.6262 33.6076 8.91821L34.027 7.46143Z" fill="white"/>
<path d="M27.5356 13.6934L28.3068 11.011C28.64 9.00247 30.2545 7.45249 32.3467 7.1334L35.1402 6.39233L34.3682 9.07479C34.0358 11.0833 32.4213 12.6333 30.3291 12.9524L27.5356 13.6934ZM32.9136 8.53055L32.6232 8.60212C31.1717 8.80863 30.0511 9.88519 29.8352 11.2786L29.7606 11.5567L30.0511 11.4851C31.5025 11.2786 32.6232 10.202 32.8391 8.80863L32.9136 8.53055Z" fill="white"/>
<path d="M25.2624 5.37402L24.4858 6.68841C23.4149 8.07661 23.4149 9.97327 24.4858 11.3615L25.2624 12.6759L26.039 11.3615C27.11 9.97327 27.11 8.07661 26.039 6.68841L25.2624 5.37402Z" fill="white"/>
<path d="M25.2623 14.187L23.8326 11.7678C22.5877 10.1216 22.5877 7.92897 23.8326 6.28356L25.2623 3.86279L26.6921 6.28356C27.9362 7.92897 27.9362 10.1216 26.6921 11.7678L25.2623 14.187ZM25.2623 6.88522L25.1093 7.13274C24.2357 8.26447 24.2357 9.78612 25.1093 10.9186L25.2616 11.1654L25.4138 10.9186C26.2875 9.78537 26.2875 8.26372 25.4138 7.13274L25.2623 6.88522Z" fill="white"/>
<path d="M36.1637 15.8389L34.7945 15.0933C33.3485 14.0652 31.3728 14.0652 29.9268 15.0933L28.5576 15.8389L29.9268 16.5844C31.3728 17.6125 33.3485 17.6125 34.7945 16.5844L36.1637 15.8389Z" fill="white"/>
<path d="M32.3606 18.1077C31.3611 18.1077 30.3616 17.8095 29.5043 17.2115L26.9834 15.839L29.5043 14.4665C31.2198 13.2706 33.503 13.2706 35.217 14.4665L37.7386 15.839L35.217 17.2115C34.3596 17.8095 33.3601 18.1077 32.3606 18.1077ZM30.131 15.839L30.3888 15.9851C31.5685 16.8239 33.1535 16.8239 34.3316 15.9851L34.5895 15.839L34.3316 15.6929C33.1528 14.8527 31.5685 14.8527 30.3888 15.6929L30.131 15.839Z" fill="white"/>
<path d="M20.32 10.1184L19.5434 11.4328C18.4725 12.821 18.4725 14.7177 19.5434 16.1058L20.32 17.4202L21.0967 16.1058C22.1676 14.7177 22.1676 12.821 21.0967 11.4328L20.32 10.1184Z" fill="white"/>
<path d="M20.3203 18.9324L18.8906 16.5116C17.6465 14.8655 17.6465 12.6743 18.8906 11.0282L20.3203 8.60742L21.7501 11.0282C22.995 12.6743 22.995 14.8655 21.7501 16.5116L20.3203 18.9324ZM20.3203 11.6298L20.1681 11.8774C19.2944 13.0091 19.2944 14.5307 20.1681 15.6617L20.3203 15.9093L20.4733 15.6617C21.347 14.53 21.347 13.0084 20.4733 11.8774L20.3203 11.6298Z" fill="white"/>
<path d="M31.2213 20.5838L29.8522 19.8382C28.4061 18.8101 26.4304 18.8101 24.9844 19.8382L23.6152 20.5838L24.9844 21.3293C26.4304 22.3574 28.4061 22.3574 29.8522 21.3293L31.2213 20.5838Z" fill="white"/>
<path d="M27.4183 22.8524C26.418 22.8524 25.4193 22.5542 24.5611 21.9563L22.0403 20.5837L24.5611 19.2112C26.2759 18.0168 28.5591 18.0168 30.2739 19.2112L32.7939 20.5837L30.2739 21.9563C29.4173 22.5535 28.4178 22.8524 27.4183 22.8524ZM25.1894 20.5837L25.4473 20.7299C26.6269 21.5686 28.2112 21.5701 29.3909 20.7299L29.6487 20.5837L29.3909 20.4376C28.2112 19.5989 26.6261 19.5996 25.4473 20.4376L25.1894 20.5837Z" fill="white"/>
<path d="M15.3777 14.8633L14.6011 16.1777C13.5301 17.5659 13.5301 19.4625 14.6011 20.8507L15.3777 22.1651L16.1543 20.8507C17.2252 19.4625 17.2252 17.5659 16.1543 16.1777L15.3777 14.8633Z" fill="white"/>
<path d="M15.3778 23.6773L13.9481 21.2565C12.7032 19.6111 12.7032 17.4185 13.9481 15.7723L15.3778 13.353L16.8075 15.7723C18.0517 17.4192 18.0517 19.6111 16.8075 21.2565L15.3778 23.6773ZM15.3778 16.374L15.2256 16.6207C14.3519 17.754 14.3519 19.2756 15.2256 20.4066L15.3786 20.6541L15.5308 20.4066C16.4045 19.2749 16.4045 17.7532 15.5308 16.6207L15.3778 16.374Z" fill="white"/>
<path d="M26.2789 25.3284L24.9098 24.5828C23.4637 23.5547 21.488 23.5547 20.042 24.5828L18.6729 25.3284L20.042 26.0739C21.488 27.102 23.4637 27.102 24.9098 26.0739L26.2789 25.3284Z" fill="white"/>
<path d="M22.4759 27.597C21.4764 27.597 20.4769 27.2981 19.6195 26.7009L17.0986 25.3284L19.6195 23.9558C21.3342 22.7622 23.6167 22.7607 25.3322 23.9558L27.8531 25.3284L25.3322 26.7009C24.4748 27.2981 23.4753 27.597 22.4759 27.597ZM20.247 25.3284L20.5048 25.4745C21.6853 26.314 23.2695 26.3132 24.4484 25.4745L24.7063 25.3284L24.4484 25.1822C23.2695 24.3443 21.6845 24.3428 20.5048 25.1822L20.247 25.3284Z" fill="white"/>
<path d="M10.4353 19.6079L9.65867 20.9223C8.58773 22.3105 8.58773 24.2072 9.65867 25.5954L10.4353 26.9097L11.2119 25.5954C12.2828 24.2072 12.2828 22.3105 11.2119 20.9223L10.4353 19.6079Z" fill="white"/>
<path d="M10.4353 28.4202L9.0056 26.0009C7.76148 24.3547 7.76148 22.1628 9.0056 20.5167L10.4353 18.0974L11.8651 20.5167C13.11 22.1628 13.11 24.3547 11.8651 26.0009L10.4353 28.4202ZM10.4353 21.1183L10.2831 21.3651C9.40944 22.4983 9.40944 24.0192 10.2831 25.1517L10.4353 25.3985L10.5875 25.1517C11.4612 24.0185 11.4612 22.4976 10.5875 21.3651L10.4353 21.1183Z" fill="white"/>
<path d="M21.3365 30.073L19.9674 29.3275C18.5214 28.2994 16.5457 28.2994 15.0996 29.3275L13.7305 30.073L15.0996 30.8186C16.5457 31.8467 18.5214 31.8467 19.9674 30.8186L21.3365 30.073Z" fill="white"/>
<path d="M17.5335 32.3416C16.534 32.3416 15.5345 32.0434 14.6771 31.4454L12.1562 30.0729L14.6771 28.7004C16.3926 27.5045 18.6751 27.5045 20.3906 28.7004L22.9115 30.0729L20.3906 31.4454C19.5325 32.0434 18.533 32.3416 17.5335 32.3416ZM15.3046 30.0729L15.5624 30.219C16.7421 31.0578 18.3272 31.0578 19.506 30.219L19.7639 30.0729L19.506 29.9268C18.3264 29.0865 16.7413 29.0865 15.5624 29.9268L15.3046 30.0729Z" fill="white"/>
<path d="M5.49314 24.3523L4.71653 25.6667C3.6456 27.0549 3.6456 28.9515 4.71653 30.3397L5.49314 31.6541L6.26975 30.3397C7.34069 28.9515 7.34069 27.0549 6.26975 25.6667L5.49314 24.3523Z" fill="white"/>
<path d="M5.49329 33.1661L4.06356 30.7453C2.81866 29.0991 2.81866 26.908 4.06356 25.2618L5.49329 22.8411L6.92302 25.2618C8.16792 26.908 8.16792 29.0991 6.92302 30.7453L5.49329 33.1661ZM5.49329 25.8635L5.3403 26.111C4.46662 27.2427 4.46662 28.7644 5.3403 29.8954L5.49329 30.1429L5.64628 29.8954C6.51996 28.7636 6.51996 27.242 5.64628 26.111L5.49329 25.8635Z" fill="white"/>
<path d="M16.3942 34.8174L15.025 34.0719C13.579 33.0438 11.6033 33.0438 10.1572 34.0719L8.78809 34.8174L10.1572 35.5629C11.6033 36.591 13.579 36.591 15.025 35.5629L16.3942 34.8174Z" fill="white"/>
<path d="M12.5911 37.0858C11.5916 37.0858 10.5921 36.7876 9.73473 36.1896L7.21387 34.8171L9.73473 33.4446C11.4503 32.2502 13.7335 32.2509 15.4474 33.4446L17.9683 34.8171L15.4474 36.1896C14.5901 36.7876 13.5906 37.0858 12.5911 37.0858ZM10.3622 34.8171L10.6201 34.9632C11.7989 35.8027 13.384 35.8042 14.5637 34.9632L14.8215 34.8171L14.5637 34.671C13.384 33.8322 11.7997 33.833 10.6201 34.671L10.3622 34.8171Z" fill="white"/>
<path d="M0.7768 40.091C0.577989 40.091 0.379178 40.0179 0.22774 39.8725C-0.0759132 39.581 -0.0759132 39.1098 0.22774 38.8183L27.9673 12.1884C28.271 11.8968 28.7618 11.8968 29.0654 12.1884C29.3691 12.4799 29.3691 12.951 29.0654 13.2426L1.32586 39.8725C1.17442 40.0179 0.975611 40.091 0.7768 40.091Z" fill="white"/>
<path d="M28.0436 5.70879C27.8448 5.70879 27.646 5.63573 27.4946 5.49035C27.1909 5.19884 27.1909 4.72766 27.4946 4.43616L31.8878 0.21863C32.1915 -0.0728766 32.6823 -0.0728766 32.986 0.21863C33.2896 0.510136 33.2896 0.981318 32.986 1.27283L28.5927 5.49035C28.4413 5.63573 28.2425 5.70879 28.0436 5.70879Z" fill="white"/>
<path d="M31.3386 6.76299C31.1398 6.76299 30.9409 6.68993 30.7895 6.54455C30.4859 6.25304 30.4859 5.78186 30.7895 5.49035L36.2809 0.21863C36.5845 -0.0728766 37.0754 -0.0728766 37.379 0.21863C37.6827 0.510136 37.6827 0.981318 37.379 1.27283L31.8876 6.54455C31.7362 6.68993 31.5374 6.76299 31.3386 6.76299Z" fill="white"/>
<path d="M35.7319 10.9803C35.5331 10.9803 35.3343 10.9072 35.1828 10.7618C34.8792 10.4703 34.8792 9.99914 35.1828 9.70764L40.6742 4.43592C40.9779 4.14441 41.4687 4.14441 41.7723 4.43592C42.076 4.72742 42.076 5.1986 41.7723 5.49011L36.2809 10.7618C36.1287 10.9072 35.9307 10.9803 35.7319 10.9803Z" fill="white"/>
<path d="M36.281 6.23589C36.0821 6.23589 35.8833 6.16283 35.7319 6.01745C35.4282 5.72594 35.4282 5.25476 35.7319 4.96325L40.6742 0.21863C40.9779 -0.0728767 41.4687 -0.0728767 41.7723 0.21863C42.076 0.510137 42.076 0.981319 41.7723 1.27283L36.83 6.01745C36.6786 6.16283 36.4798 6.23589 36.281 6.23589Z" fill="white"/>
<path d="M36.83 14.1429C36.6312 14.1429 36.4324 14.0698 36.281 13.9244C35.9773 13.6329 35.9773 13.1617 36.281 12.8702L40.6742 8.65344C40.9779 8.36194 41.4687 8.36194 41.7723 8.65344C42.076 8.94495 42.076 9.41613 41.7723 9.70764L37.3791 13.9244C37.2276 14.0698 37.0288 14.1429 36.83 14.1429Z" fill="white"/>
</svg>
