<svg width="33" height="37" viewBox="0 0 33 37" fill="none" xmlns="http://www.w3.org/2000/svg">
<path d="M30.0449 18.7345C28.6928 11.775 23.7866 6.4931 17.7792 5.84325C18.5321 4.31685 20.3943 1.87612 24.6043 1.52853C25.0415 1.4983 25.3896 1.12048 25.3248 0.704875C25.2924 0.266602 24.8876 -0.0280983 24.4423 0.00212738C18.9369 0.470626 16.7672 3.99192 16.0385 5.79035C9.65064 6.0246 4.33145 11.4577 2.92272 18.7421C1.25491 19.0594 0 20.2307 0 21.6437C0 23.291 1.7002 24.6361 3.8052 24.6361C5.12488 24.6361 6.29073 24.1071 6.9789 23.3137C7.66708 24.1071 8.83292 24.6361 10.1526 24.6361C11.4723 24.6361 12.6381 24.1071 13.3263 23.3137C14.0145 24.1071 15.1803 24.6361 16.5 24.6361C17.8197 24.6361 18.9855 24.1071 19.6737 23.3137C20.3619 24.1071 21.5277 24.6361 22.8474 24.6361C24.1671 24.6361 25.3329 24.1071 26.0211 23.3137C26.7093 24.1071 27.8751 24.6361 29.1948 24.6361C31.2998 24.6361 33 23.2835 33 21.6437C32.9676 20.2307 31.7127 19.0594 30.0449 18.7345Z" fill="white"/>
<path d="M22.8068 26.1322C21.6734 26.1322 20.5399 25.8375 19.6331 25.3086C18.7507 25.8375 17.6172 26.1322 16.4837 26.1322C15.3503 26.1322 14.2168 25.8375 13.31 25.3086C12.3952 25.8375 11.2941 26.1322 10.1606 26.1322C9.02715 26.1322 7.89369 25.8375 6.98692 25.3086C6.26636 25.7166 5.44864 26.0113 4.56616 26.102C6.04776 32.389 10.8245 36.9984 16.4918 36.9984C22.1591 36.9984 26.9359 32.389 28.4175 26.102C27.535 26.0113 26.7173 25.7166 25.9967 25.3086C25.0738 25.8451 23.9727 26.1322 22.8068 26.1322Z" fill="white"/>
</svg>
