<svg width="44" height="44" viewBox="0 0 44 44" fill="none" xmlns="http://www.w3.org/2000/svg">
<path d="M12.8967 12.1383C17.5092 12.1383 21.2416 8.40585 21.2416 3.79346C16.6292 3.79337 12.8967 7.52584 12.8967 12.1383Z" fill="white"/>
<path d="M16.6902 16.4647C18.3075 20.7843 23.112 22.9707 27.4316 21.3533C25.8142 17.0337 21.0098 14.8474 16.6902 16.4647Z" fill="white"/>
<path d="M26.5937 11.2482C30.6895 9.12708 32.2872 4.0959 30.1653 0C26.0695 2.1219 24.4718 7.15239 26.5937 11.2482Z" fill="white"/>
<path d="M43.4692 29.7123C44.0564 29.2253 44.1754 28.362 43.731 27.7422C42.7804 26.4184 41.9922 26.1035 38.6899 27.8401L32.1096 31.8623C30.0985 32.9312 24.8214 32.621 22.5449 32.621C22.5449 32.621 27.9175 32.9851 25.7736 29.7845C24.7077 28.1929 22.868 27.3106 20.9525 27.3106H17.9931C16.268 27.3106 14.5672 26.7765 13.1895 25.7379C9.97527 23.3149 3.79321 28.0692 3.79321 28.0692V41.7244H14.414C15.929 41.7244 17.4424 41.6099 18.9399 41.3823L28.8279 39.8787C29.1655 39.8787 29.4932 39.8393 29.8103 39.7687C29.8157 39.768 29.8202 39.7672 29.8255 39.7664C30.6259 39.6542 31.3572 39.2491 31.9413 38.6899L43.4692 29.7123Z" fill="white"/>
<path d="M0 43.2422H3.79314V25.7937H0V43.2422Z" fill="white"/>
</svg>
