<svg width="43" height="36" viewBox="0 0 43 36" fill="none" xmlns="http://www.w3.org/2000/svg">
<path d="M38.3776 9.67248C38.4098 9.71302 38.4421 9.75212 38.4743 9.79266C38.4866 9.80569 38.4973 9.82017 38.5096 9.83465C38.4651 9.77963 38.4221 9.72605 38.3776 9.67248ZM32.9355 12.5626C32.6591 12.5626 32.3888 12.6553 32.2061 12.8609C31.5212 13.6312 30.8502 14.4204 30.11 15.1429C29.442 15.7974 28.7633 16.4432 28.1045 17.1064C27.4688 17.7435 26.8776 18.4211 26.2357 19.0525C25.8856 19.3956 25.5386 19.7431 25.1716 20.0704C24.7984 20.4034 24.3992 20.7104 24.0076 21.0246C23.5301 21.4069 23.593 22.1627 24.0076 22.5537C24.4621 22.9823 25.1716 22.9548 25.6292 22.5537C25.9854 22.2452 26.3586 21.9542 26.7087 21.6414C27.0726 21.3142 27.4227 20.9739 27.7729 20.6293C28.4316 19.9864 29.029 19.2928 29.6447 18.6137C30.2605 17.9288 30.9039 17.2715 31.5596 16.6228C32.3151 15.8756 33.0291 15.0937 33.737 14.3074C33.929 14.0931 34.0549 13.8731 34.0549 13.5849C34.0549 13.3156 33.9382 13.0549 33.737 12.8624C33.5343 12.6698 33.2334 12.5626 32.9355 12.5626ZM42.9966 3.65035C43.0258 3.92257 42.863 4.29325 42.714 4.51913C42.6326 4.648 42.542 4.76963 42.4453 4.88981C42.2349 5.15045 42.0169 5.40674 41.7697 5.63697C41.5393 5.85416 41.3059 6.06847 41.0664 6.28277C40.6287 6.67372 40.1865 7.06033 39.7365 7.4368C39.2759 7.82052 38.7891 8.17093 38.3054 8.52423C38.1134 8.66613 37.92 8.80514 37.7265 8.94559C37.9798 9.22505 38.2332 9.50162 38.4758 9.78976C38.7 10.0678 38.9135 10.3516 39.1285 10.6397C39.4694 11.0958 39.6306 11.6678 39.6644 12.2238C39.6874 12.5916 39.6383 12.9435 39.5707 13.3127C39.5292 13.5357 39.4801 13.7688 39.3956 13.9831C39.1515 14.6159 38.8275 15.2182 38.4943 15.8119C38.1887 16.3563 37.8447 16.8979 37.4531 17.3931C36.7268 18.3198 35.8531 19.1147 34.9901 19.9227C34.124 20.7307 33.2641 21.5415 32.3811 22.3336C30.5845 23.9481 28.7003 25.4988 26.7333 26.9294C25.3482 27.9633 24.0813 29.1159 22.7377 30.1961C22.1803 30.645 21.6152 31.0779 21.0286 31.4935C20.5249 31.8511 19.9967 32.1841 19.4838 32.5302C18.9909 32.8604 18.4918 33.1818 17.982 33.4902C17.4369 33.8175 16.8887 34.178 16.3021 34.4358C15.6817 34.7109 15.0429 34.9585 14.378 35.1264C13.7484 35.2886 13.1127 35.4073 12.4677 35.5029C11.0151 35.7172 9.52251 35.7389 8.06832 35.5188C7.44948 35.4247 6.86135 35.2741 6.26708 35.0815C5.62828 34.8701 4.98641 34.6501 4.38293 34.3532C3.81169 34.0752 3.26042 33.7509 2.75829 33.3657C2.5602 33.2122 2.36825 33.05 2.16863 32.8922C1.95825 32.7271 1.7402 32.5708 1.54979 32.3869C1.02462 31.8786 0.648402 31.3096 0.365856 30.658C0.269115 30.4379 0.181586 30.2149 0.126306 29.9847C0.0556691 29.6792 -0.0287877 29.3418 0.00960176 29.0305C0.0618114 28.5874 0.140126 28.2109 0.3505 27.8156C0.574695 27.3957 0.895631 27.0728 1.28413 26.7904C1.39776 26.7079 1.50525 26.6442 1.63117 26.5819C1.76477 26.5153 2.05039 26.3894 2.22851 26.3618C2.44656 26.3285 2.66308 26.2909 2.8842 26.2981C3.11454 26.3083 3.32184 26.3546 3.53529 26.4241C3.75641 26.498 3.98368 26.6008 4.19405 26.705C4.59637 26.9034 4.99102 27.1177 5.39948 27.303C5.66514 27.3957 5.9354 27.4739 6.20566 27.5535C6.56038 27.6592 6.92124 27.7678 7.28824 27.8402C7.37884 27.8431 7.46637 27.8402 7.55543 27.8359C8.2403 27.7114 8.90828 27.4971 9.55629 27.2509C10.2197 26.9772 10.84 26.6196 11.4236 26.2156C12.8071 25.1253 13.988 23.8062 15.1166 22.4856C15.7001 21.7515 16.2514 21.0014 16.8027 20.2456C17.3739 19.4651 17.9774 18.7035 18.5256 17.9086C18.8926 17.3786 19.2581 16.8443 19.5805 16.2897C19.8861 15.7641 20.184 15.237 20.4988 14.7143C21.1607 13.6197 21.8425 12.5366 22.5166 11.4506C23.1922 10.3646 23.9769 9.35247 24.7616 8.33599C25.3236 7.60766 25.8641 6.82141 26.569 6.20747C26.9068 5.91353 27.2723 5.62249 27.6761 5.41543C28.0585 5.22285 28.4547 5.05488 28.8539 4.9014C29.2132 4.76673 29.571 4.67117 29.9564 4.62049C30.2006 4.58719 30.4417 4.57705 30.6828 4.57705C30.8333 4.57705 30.9822 4.58139 31.1342 4.58429C31.3308 4.59008 31.5181 4.63931 31.6824 4.7233C31.7761 4.72909 31.8698 4.73922 31.9681 4.75515C32.3996 4.82176 32.7957 4.99986 33.1873 5.17796C33.4238 5.28511 33.6679 5.38936 33.8875 5.52403C34.1655 5.69778 34.4357 5.88602 34.6799 6.10032C34.7828 5.98014 34.8872 5.8614 34.9885 5.74122C35.4507 5.13597 35.85 4.49307 36.1817 3.81397C36.1832 3.81107 36.1848 3.80818 36.1863 3.80528C36.3967 3.33034 36.5564 2.83803 36.7606 2.35875C36.9909 1.823 37.2243 1.26119 37.5775 0.786251C37.8201 0.4648 38.0904 0.175205 38.5081 0.057919C38.6478 0.0173756 38.7845 0 38.9181 0C39.1761 0 39.4264 0.0680548 39.6797 0.176653C39.9224 0.278011 40.1496 0.409777 40.3738 0.544439C40.8898 0.847066 41.398 1.20472 41.8372 1.6058C42.0967 1.84182 42.324 2.11404 42.5221 2.39785C42.5943 2.5021 42.6649 2.60925 42.7232 2.7193C42.7939 2.85686 42.8722 3.00021 42.9152 3.145C42.9643 3.31007 42.9812 3.48093 42.9966 3.65035ZM37.0892 12.2629C37.0754 12.2035 37.06 12.1442 37.0416 12.0848C36.9111 11.8502 36.7452 11.6345 36.5779 11.4202C36.3276 11.132 36.0619 10.8584 35.8024 10.5789C35.5306 10.2864 35.2557 10.0185 34.9455 9.77239C34.5171 9.4741 34.0779 9.1874 33.6741 8.85871C33.3194 8.56912 33.0414 8.21292 32.6928 7.91753C32.3919 7.72205 32.0725 7.56422 31.7408 7.42232C31.5734 7.3644 31.4076 7.32096 31.2248 7.292C30.9131 7.24422 30.6106 7.00096 30.4325 6.75046C30.3787 6.75191 30.325 6.75336 30.2697 6.7577C29.9887 6.81272 29.7215 6.88947 29.4543 6.98648C29.1042 7.13128 28.7679 7.28621 28.4485 7.48459C28.08 7.77418 27.7606 8.09998 27.4581 8.45473C27.0542 8.96731 26.658 9.48424 26.2634 10.0026C25.8411 10.5528 25.4096 11.1002 25.0395 11.6823C24.3654 12.7407 23.722 13.818 23.074 14.891C22.4214 15.9741 21.8501 17.1049 21.1591 18.1677C20.462 19.2407 19.6804 20.2601 18.9202 21.291C18.1217 22.377 17.3248 23.4717 16.4188 24.4824C15.5942 25.4033 14.768 26.343 13.8559 27.1959C12.8793 28.111 11.786 28.9001 10.5176 29.4229C9.89873 29.6792 9.25532 29.9036 8.6027 30.0744C8.43686 30.115 8.26794 30.1686 8.09903 30.1961C7.79652 30.2424 7.47251 30.3192 7.16386 30.2873C6.7124 30.241 6.27476 30.1613 5.83712 30.0484C5.21368 29.8891 4.59484 29.74 4.00671 29.4909C3.60132 29.3201 3.21435 29.113 2.81817 28.9291C2.80743 28.9407 2.79514 28.9508 2.78439 28.9624C2.77671 28.9754 2.7675 28.9885 2.75982 29.0029C2.74754 29.0391 2.73525 29.0768 2.7245 29.1144C2.72297 29.1579 2.72297 29.2028 2.7245 29.2477C2.7675 29.4388 2.82585 29.6241 2.89802 29.808C2.98709 29.9803 3.08536 30.144 3.19746 30.3018C3.42626 30.545 3.6781 30.7579 3.94529 30.965C4.14798 31.1242 4.34454 31.2907 4.5457 31.4515C5.08469 31.812 5.66667 32.1089 6.26862 32.3695C7.1009 32.6851 7.94854 32.9429 8.83611 33.0833C9.88491 33.1963 10.9368 33.2166 11.9856 33.1065C12.9591 32.969 13.9143 32.759 14.8325 32.4245C15.757 32.0234 16.623 31.4906 17.4661 30.9534C18.2784 30.4364 19.0922 29.9166 19.8769 29.3635C20.8198 28.6525 21.7211 27.9025 22.6271 27.151C23.6391 26.3155 24.6587 25.496 25.7229 24.7198C25.6384 24.7807 25.5539 24.8429 25.4695 24.9037C27.2891 23.5296 29.0182 22.0585 30.712 20.5511C31.5596 19.7982 32.4118 19.0467 33.2318 18.2633C33.9106 17.6161 34.5954 16.963 35.2004 16.2521C35.85 15.405 36.4013 14.4928 36.8558 13.5386C36.9618 13.2692 37.0355 12.9956 37.0923 12.7147C37.1 12.5641 37.1 12.4135 37.0892 12.2629ZM40.5182 3.60401C40.4706 3.52727 40.4199 3.45197 40.3661 3.37813C40.1343 3.12907 39.8701 2.90898 39.5968 2.69758C39.4847 2.62228 39.3711 2.54988 39.2544 2.48038C39.1453 2.67151 39.0471 2.86699 38.9549 3.06681C38.8029 3.42591 38.6693 3.7937 38.5127 4.15279C38.3023 4.62628 38.0781 5.08819 37.8248 5.5443C37.6174 5.91498 37.3994 6.28711 37.146 6.63318C37.1445 6.63607 37.1414 6.63897 37.1399 6.64186C37.6881 6.23643 38.2209 5.81941 38.7261 5.36909C39.3158 4.84637 39.9116 4.32221 40.4276 3.73143C40.4583 3.68944 40.489 3.64745 40.5182 3.60401Z" fill="white"/>
</svg>
