<svg width="42" height="35" viewBox="0 0 42 35" fill="none" xmlns="http://www.w3.org/2000/svg">
<path d="M35.9305 18.9895C33.0605 19.0944 30.8958 17.3485 28.2649 16.5529C24.9532 15.5514 21.2935 16.4019 18.5363 18.6441C18.6178 18.0677 18.6745 17.482 18.7025 16.8869C18.9942 10.6805 16.5606 5.05434 13.6315 0C13.7281 0.873056 13.8621 1.75118 13.9096 2.62969C14.0246 4.74808 13.1979 6.67857 11.9189 8.18716C10.0441 10.3357 7.57011 10.9191 5.38162 12.4381C1.02676 15.4603 -1.17529 21.941 0.636809 27.4271C1.80169 30.8141 2.36188 31.6587 2.36188 31.6587C2.36188 31.6587 5.22251 32.7254 10.6595 30.2268C12.3744 29.4387 13.7838 28.179 13.7838 28.179C14.5738 29.072 17.0986 31.9185 20.5432 33.3288C25.3765 35.3078 30.5419 34.2133 34.4782 30.4938C38.7167 26.4889 40.7137 20.6499 42 14.7976C40.3246 17.0542 38.7687 18.8854 35.9305 18.9895ZM3.82458 28.3831C7.01862 24.52 9.67934 20.7037 11.4941 15.8235C11.5669 20.9315 7.92252 26.381 3.82458 28.3831ZM16.8239 26.1821C21.5225 26.1526 25.8241 25.7209 30.2416 23.8685C26.964 27.4245 20.9312 28.1682 16.8239 26.1821Z" fill="white"/>
</svg>
