<svg width="22" height="40" viewBox="0 0 22 40" fill="none" xmlns="http://www.w3.org/2000/svg">
<path d="M18.9166 36.9189L18.9168 36.9186C19.5442 36.0738 20.1155 35.3005 20.5302 34.7342C20.7374 34.4512 20.9059 34.2194 21.0228 34.056C21.0812 33.9746 21.1274 33.909 21.1595 33.8623C21.166 33.8528 21.1721 33.8438 21.1778 33.8353C21.186 33.8231 21.1933 33.8121 21.1994 33.8024C21.2042 33.7947 21.2104 33.7847 21.2161 33.7743C21.2174 33.772 21.2192 33.7687 21.2212 33.7647C21.2235 33.7603 21.226 33.755 21.2286 33.749C21.231 33.7434 21.2351 33.7336 21.2389 33.7211C21.2416 33.7122 21.25 33.6841 21.25 33.6471C21.25 33.5979 21.2348 33.5606 21.2325 33.555L21.2323 33.5545C21.2276 33.5428 21.223 33.5338 21.2209 33.5296C21.2162 33.5207 21.2118 33.5138 21.21 33.5108C21.2083 33.5081 21.2066 33.5056 21.205 33.5032C21.2025 33.4993 21.2001 33.4959 21.1983 33.4933C21.1956 33.4893 21.1925 33.485 21.1891 33.4803C21.1845 33.4739 21.1794 33.4669 21.174 33.4595C21.1548 33.4334 21.1269 33.3963 21.0914 33.3494C21.0201 33.2553 20.9154 33.1184 20.7811 32.9437C20.5124 32.5942 20.124 32.0917 19.645 31.4737C18.6869 30.2376 17.3657 28.5386 15.913 26.6751C14.4635 24.812 13.1443 23.1135 12.1875 21.878C11.709 21.2602 11.3213 20.7583 11.0533 20.4096C10.9213 20.2377 10.8186 20.1035 10.7485 20.0109C10.8186 19.9184 10.9213 19.7841 11.0534 19.6123C11.3215 19.2636 11.7094 18.7617 12.1883 18.1438C13.146 16.9082 14.4669 15.2096 15.9195 13.3462L15.9196 13.346C17.9022 10.7978 19.6392 8.55273 20.5361 7.37485C20.7793 7.05551 20.9121 6.70861 20.9134 6.34749C20.9148 5.98675 20.7849 5.63657 20.5461 5.31025C20.1286 4.73973 19.5428 3.94663 18.8992 3.07964L18.899 3.07939L17.7704 1.56298C17.3953 1.05904 16.9309 0.760991 16.4271 0.750294C15.9219 0.739569 15.4516 1.01918 15.0692 1.50953C11.0604 6.64659 7.49369 11.2239 4.9292 14.5218C3.64697 16.1707 2.61518 17.5 1.90389 18.4195C1.54829 18.8792 1.27259 19.2368 1.0857 19.4807C0.992324 19.6026 0.920722 19.6967 0.87229 19.7611C0.848207 19.7932 0.829109 19.8189 0.815716 19.8373C0.809238 19.8463 0.802779 19.8553 0.797412 19.8633C0.795019 19.8668 0.790755 19.8732 0.78634 19.8806C0.784385 19.8839 0.779844 19.8916 0.775012 19.9017C0.772523 19.907 0.766946 19.9203 0.763943 19.9285C0.759582 19.9423 0.751513 19.9834 0.75 20.0109C0.75195 20.0422 0.761832 20.087 0.766741 20.101C0.769899 20.1088 0.775603 20.1213 0.778083 20.1263C0.782766 20.1354 0.787102 20.1424 0.788916 20.1453C0.793105 20.1521 0.797237 20.1582 0.79979 20.1618C0.805446 20.17 0.81254 20.1799 0.82014 20.1902C0.835725 20.2115 0.858192 20.2416 0.886799 20.2794C0.944239 20.3555 1.02896 20.4665 1.13866 20.6095C1.35818 20.8956 1.67906 21.3114 2.08481 21.8359C2.89637 22.8849 4.04813 24.369 5.40912 26.1196C8.13113 29.6209 11.6904 34.1884 15.0397 38.4731C15.431 38.9751 15.9116 39.2605 16.427 39.2497C16.9412 39.2389 17.4158 38.9349 17.7999 38.419L18.9166 36.9189Z" fill="#F0F0F0" stroke="#E1E1E1" stroke-width="0.5"/>
</svg>
