<svg width="22" height="40" viewBox="0 0 22 40" fill="none" xmlns="http://www.w3.org/2000/svg">
<path d="M3.0834 3.08114L3.08323 3.08137C2.45582 3.92619 1.88447 4.69953 1.46983 5.26576C1.26259 5.54876 1.09407 5.78061 0.977158 5.94396C0.918844 6.02543 0.872561 6.09099 0.840509 6.13773C0.834023 6.14718 0.827887 6.15621 0.822189 6.1647C0.814009 6.17688 0.806738 6.18795 0.800648 6.19756C0.795759 6.20528 0.78956 6.21532 0.783852 6.22572C0.782589 6.22802 0.780821 6.23129 0.778786 6.2353C0.776543 6.23972 0.773977 6.24505 0.771404 6.25098C0.768972 6.25658 0.764921 6.2664 0.761103 6.2789C0.75839 6.28777 0.75 6.31591 0.75 6.35294C0.75 6.40213 0.765238 6.43944 0.76749 6.44495L0.767702 6.44548C0.772364 6.45723 0.776951 6.46619 0.779146 6.47036C0.783819 6.47925 0.788158 6.48623 0.79003 6.48921C0.791689 6.49185 0.793358 6.49442 0.794954 6.49683C0.797506 6.50068 0.799873 6.50411 0.801708 6.50675C0.804443 6.51068 0.807516 6.51501 0.81086 6.51966C0.815468 6.52607 0.820589 6.53309 0.826044 6.54051C0.845238 6.5666 0.873058 6.60368 0.908592 6.6506C0.979877 6.74473 1.0846 6.88162 1.2189 7.0563C1.48762 7.40583 1.876 7.9083 2.35501 8.5263C3.31308 9.76236 4.63427 11.4614 6.08702 13.3249C7.53647 15.188 8.85571 16.8865 9.81255 18.122C10.291 18.7398 10.6787 19.2417 10.9467 19.5904C11.0787 19.7623 11.1814 19.8965 11.2515 19.9891C11.1814 20.0816 11.0787 20.2159 10.9466 20.3877C10.6785 20.7364 10.2906 21.2383 9.81168 21.8562C8.85398 23.0918 7.53308 24.7904 6.08052 26.6538L6.08037 26.654C4.09784 29.2022 2.36079 31.4473 1.46391 32.6251C1.22073 32.9445 1.08795 33.2914 1.08658 33.6525C1.08521 34.0133 1.21507 34.3634 1.45388 34.6897C1.87136 35.2603 2.45719 36.0534 3.10083 36.9204L3.10101 36.9206L4.22964 38.437C4.60469 38.941 5.06907 39.239 5.5729 39.2497C6.07807 39.2604 6.54841 38.9808 6.93078 38.4905C10.9396 33.3534 14.5063 28.7761 17.0708 25.4782C18.353 23.8293 19.3848 22.5 20.0961 21.5805C20.4517 21.1208 20.7274 20.7632 20.9143 20.5193C21.0077 20.3974 21.0793 20.3033 21.1277 20.2389C21.1518 20.2068 21.1709 20.1811 21.1843 20.1627C21.1908 20.1537 21.1972 20.1447 21.2026 20.1367C21.205 20.1332 21.2092 20.1268 21.2137 20.1194C21.2156 20.1161 21.2202 20.1084 21.225 20.0983C21.2275 20.093 21.2331 20.0797 21.2361 20.0715C21.2404 20.0577 21.2485 20.0166 21.25 19.9891C21.2481 19.9578 21.2382 19.913 21.2333 19.899C21.2301 19.8912 21.2244 19.8787 21.2219 19.8737C21.2172 19.8646 21.2129 19.8576 21.2111 19.8547C21.2069 19.8479 21.2028 19.8418 21.2002 19.8382C21.1946 19.83 21.1875 19.8201 21.1799 19.8098C21.1643 19.7885 21.1418 19.7584 21.1132 19.7206C21.0558 19.6445 20.971 19.5335 20.8613 19.3905C20.6418 19.1044 20.3209 18.6886 19.9152 18.1641C19.1036 17.1151 17.9519 15.631 16.5909 13.8804C13.8689 10.3791 10.3096 5.81157 6.96034 1.52686C6.56902 1.02489 6.08844 0.739502 5.57303 0.75029C5.05885 0.761051 4.58415 1.06513 4.20015 1.58101L3.0834 3.08114Z" fill="#F0F0F0" stroke="#E1E1E1" stroke-width="0.5"/>
</svg>
