<svg width="60" height="56" viewBox="0 0 60 56" fill="none" xmlns="http://www.w3.org/2000/svg">
<g opacity="0.95">
<path d="M22.3569 53.0047C30.8614 51.3691 37.3648 44.3597 37.3648 35.8314C37.3648 30.5743 39.4909 25.7844 43.4931 22.046C45.8693 19.8263 48.8709 18.1907 51.9975 17.2561C44.4936 13.7514 33.4878 16.0879 25.3586 23.6815C15.8536 32.5602 13.9776 45.2941 21.1063 51.9531C21.4814 52.3038 21.8566 52.6543 22.3569 53.0047Z" fill="#7C4A07"/>
<path d="M55.6242 19.7099C55.2489 19.3594 54.8738 19.009 54.3735 18.6584C45.869 20.294 39.3656 27.3035 39.3656 35.8318C39.3656 41.0889 37.2395 45.8787 33.2374 49.6171C30.8611 51.8368 27.8595 53.4724 24.7329 54.407C32.2369 57.9118 43.2426 55.5753 51.3719 47.9817C60.8769 39.1028 62.878 26.369 55.6242 19.7099Z" fill="#7C4A07"/>
<path d="M4.72267 2.53613C11.9765 3.93806 17.4794 10.0129 17.4794 17.2561C17.4794 21.6954 19.3553 25.9011 22.7322 29.0555C24.8583 31.0415 27.3596 32.4434 29.986 33.1443C23.4825 36.1817 14.1027 34.0789 7.2241 27.6536C-0.780282 20.06 -2.40605 9.19526 3.72216 3.47083C4.09728 3.12032 4.34743 2.88664 4.72267 2.53613Z" fill="#7C4A07"/>
<path d="M33.2376 31.0416C32.8623 31.3921 32.6122 31.6257 32.237 31.8593C24.8582 30.5744 19.3552 24.4994 19.3552 17.2562C19.3552 12.8169 17.4793 8.6112 14.1024 5.45683C12.1014 3.47095 9.60011 2.18585 6.84863 1.368C13.3521 -1.66942 22.732 0.433415 29.6105 6.85876C37.7399 14.4525 39.3658 25.3172 33.2376 31.0416Z" fill="#7C4A07"/>
</g>
</svg>
