<svg width="54" height="52" viewBox="0 0 54 52" fill="none" xmlns="http://www.w3.org/2000/svg">
<path d="M43.7493 9.59335L41.7982 10.111C39.5097 10.4378 37.7134 12.1632 37.3729 14.3593L36.8337 16.2323L38.7848 15.7147C41.0733 15.3878 42.8696 13.6624 43.2101 11.4664L43.7493 9.59335Z" fill="#7C4A07"/>
<path d="M35.4028 17.6057L36.3943 14.1568C36.8227 11.5745 38.8986 9.58167 41.5885 9.17141L45.1801 8.21861L44.1876 11.6675C43.7602 14.2498 41.6844 16.2427 38.9944 16.6529L35.4028 17.6057ZM42.3174 10.9677L41.944 11.0598C40.0778 11.3253 38.637 12.7094 38.3594 14.501L38.2635 14.8585L38.637 14.7665C40.5031 14.501 41.944 13.1168 42.2215 11.3253L42.3174 10.9677Z" fill="#7C4A07"/>
<path d="M32.4804 6.90945L31.4819 8.59938C30.105 10.3842 30.105 12.8228 31.4819 14.6076L32.4804 16.2975L33.4789 14.6076C34.8558 12.8228 34.8558 10.3842 33.4789 8.59938L32.4804 6.90945Z" fill="#7C4A07"/>
<path d="M32.4803 18.2404L30.6421 15.1299C29.0415 13.0134 29.0415 10.1943 30.6421 8.07875L32.4803 4.96633L34.3185 8.07875C35.9181 10.1943 35.9181 13.0134 34.3185 15.1299L32.4803 18.2404ZM32.4803 8.8523L32.2836 9.17054C31.1603 10.6256 31.1603 12.582 32.2836 14.0381L32.4793 14.3554L32.675 14.0381C33.7983 12.5811 33.7983 10.6247 32.675 9.17054L32.4803 8.8523Z" fill="#7C4A07"/>
<path d="M46.496 20.3647L44.7357 19.4061C42.8765 18.0843 40.3363 18.0843 38.4771 19.4061L36.7168 20.3647L38.4771 21.3232C40.3363 22.6451 42.8765 22.6451 44.7357 21.3232L46.496 20.3647Z" fill="#7C4A07"/>
<path d="M41.6066 23.2815C40.3215 23.2815 39.0364 22.8981 37.9341 22.1293L34.693 20.3646L37.9341 18.5999C40.1398 17.0624 43.0753 17.0624 45.279 18.5999L48.5211 20.3646L45.279 22.1293C44.1767 22.8981 42.8916 23.2815 41.6066 23.2815ZM38.7399 20.3646L39.0714 20.5525C40.5881 21.6309 42.626 21.6309 44.1407 20.5525L44.4722 20.3646L44.1407 20.1767C42.625 19.0964 40.5881 19.0964 39.0714 20.1767L38.7399 20.3646Z" fill="#7C4A07"/>
<path d="M26.1259 13.0094L25.1274 14.6993C23.7505 16.4841 23.7505 18.9227 25.1274 20.7075L26.1259 22.3975L27.1244 20.7075C28.5013 18.9227 28.5013 16.4841 27.1244 14.6993L26.1259 13.0094Z" fill="#7C4A07"/>
<path d="M26.1258 24.3416L24.2876 21.2291C22.688 19.1127 22.688 16.2955 24.2876 14.179L26.1258 11.0666L27.964 14.179C29.5646 16.2955 29.5646 19.1127 27.964 21.2291L26.1258 24.3416ZM26.1258 14.9525L25.9301 15.2708C24.8068 16.7259 24.8068 18.6823 25.9301 20.1364L26.1258 20.4546L26.3225 20.1364C27.4458 18.6813 27.4458 16.7249 26.3225 15.2708L26.1258 14.9525Z" fill="#7C4A07"/>
<path d="M40.1417 26.4649L38.3813 25.5063C36.5221 24.1845 33.982 24.1845 32.1228 25.5063L30.3624 26.4649L32.1228 27.4234C33.982 28.7453 36.5221 28.7453 38.3813 27.4234L40.1417 26.4649Z" fill="#7C4A07"/>
<path d="M35.2521 29.3817C33.966 29.3817 32.682 28.9982 31.5786 28.2295L28.3375 26.4648L31.5786 24.7001C33.7833 23.1645 36.7189 23.1645 38.9235 24.7001L42.1637 26.4648L38.9235 28.2295C37.8222 28.9973 36.5372 29.3817 35.2521 29.3817ZM32.3864 26.4648L32.7179 26.6527C34.2346 27.731 36.2716 27.7329 37.7883 26.6527L38.1198 26.4648L37.7883 26.2769C36.2716 25.1985 34.2336 25.1995 32.7179 26.2769L32.3864 26.4648Z" fill="#7C4A07"/>
<path d="M19.7714 19.1099L18.7729 20.7999C17.396 22.5847 17.396 25.0232 18.7729 26.8081L19.7714 28.498L20.7699 26.8081C22.1468 25.0232 22.1468 22.5847 20.7699 20.7999L19.7714 19.1099Z" fill="#7C4A07"/>
<path d="M19.7713 30.442L17.9331 27.3296C16.3325 25.214 16.3325 22.3949 17.9331 20.2784L19.7713 17.1679L21.6096 20.2784C23.2091 22.3959 23.2091 25.214 21.6096 27.3296L19.7713 30.442ZM19.7713 21.052L19.5756 21.3693C18.4523 22.8263 18.4523 24.7827 19.5756 26.2368L19.7723 26.555L19.968 26.2368C21.0913 24.7817 21.0913 22.8253 19.968 21.3693L19.7713 21.052Z" fill="#7C4A07"/>
<path d="M33.7873 32.5649L32.027 31.6064C30.1678 30.2845 27.6276 30.2845 25.7684 31.6064L24.0081 32.5649L25.7684 33.5235C27.6276 34.8453 30.1678 34.8453 32.027 33.5235L33.7873 32.5649Z" fill="#7C4A07"/>
<path d="M28.8977 35.482C27.6126 35.482 26.3276 35.0976 25.2252 34.3298L21.9841 32.5651L25.2252 30.8004C27.4299 29.2658 30.3645 29.2639 32.5702 30.8004L35.8113 32.5651L32.5702 34.3298C31.4678 35.0976 30.1828 35.482 28.8977 35.482ZM26.032 32.5651L26.3635 32.753C27.8812 33.8323 29.9182 33.8314 31.4339 32.753L31.7654 32.5651L31.4339 32.3772C29.9182 31.2998 27.8802 31.2979 26.3635 32.3772L26.032 32.5651Z" fill="#7C4A07"/>
<path d="M13.4172 25.2101L12.4187 26.9C11.0418 28.6849 11.0418 31.1234 12.4187 32.9082L13.4172 34.5982L14.4157 32.9082C15.7926 31.1234 15.7926 28.6849 14.4157 26.9L13.4172 25.2101Z" fill="#7C4A07"/>
<path d="M13.4171 36.5402L11.5788 33.4297C9.97925 31.3132 9.97925 28.495 11.5788 26.3786L13.4171 23.2681L15.2553 26.3786C16.8559 28.495 16.8559 31.3132 15.2553 33.4297L13.4171 36.5402ZM13.4171 27.1521L13.2214 27.4694C12.0981 28.9264 12.0981 30.8818 13.2214 32.3379L13.4171 32.6552L13.6128 32.3379C14.7361 30.8809 14.7361 28.9254 13.6128 27.4694L13.4171 27.1521Z" fill="#7C4A07"/>
<path d="M27.4328 38.6653L25.6725 37.7068C23.8133 36.3849 21.2731 36.3849 19.4139 37.7068L17.6536 38.6653L19.4139 39.6239C21.2731 40.9457 23.8133 40.9457 25.6725 39.6239L27.4328 38.6653Z" fill="#7C4A07"/>
<path d="M22.5433 41.5823C21.2583 41.5823 19.9732 41.1988 18.8709 40.4301L15.6298 38.6654L18.8709 36.9007C21.0765 35.3632 24.0111 35.3632 26.2168 36.9007L29.4579 38.6654L26.2168 40.4301C25.1135 41.1988 23.8284 41.5823 22.5433 41.5823ZM19.6777 38.6654L20.0092 38.8533C21.5259 39.9316 23.5638 39.9316 25.0795 38.8533L25.411 38.6654L25.0795 38.4775C23.5628 37.3972 21.5249 37.3972 20.0092 38.4775L19.6777 38.6654Z" fill="#7C4A07"/>
<path d="M7.0628 31.3104L6.06431 33.0003C4.68739 34.7851 4.68739 37.2237 6.06431 39.0085L7.0628 40.6984L8.06129 39.0085C9.43822 37.2237 9.43822 34.7851 8.06129 33.0003L7.0628 31.3104Z" fill="#7C4A07"/>
<path d="M7.06259 42.6423L5.22436 39.5299C3.62378 37.4134 3.62378 34.5962 5.22436 32.4798L7.06259 29.3673L8.90082 32.4798C10.5014 34.5962 10.5014 37.4134 8.90082 39.5299L7.06259 42.6423ZM7.06259 33.2533L6.86589 33.5716C5.74258 35.0266 5.74258 36.983 6.86589 38.4372L7.06259 38.7554L7.25929 38.4372C8.3826 36.9821 8.3826 35.0257 7.25929 33.5716L7.06259 33.2533Z" fill="#7C4A07"/>
<path d="M21.0784 44.7654L19.3181 43.8068C17.4589 42.485 14.9187 42.485 13.0595 43.8068L11.2992 44.7654L13.0595 45.7239C14.9187 47.0458 17.4589 47.0458 19.3181 45.7239L21.0784 44.7654Z" fill="#7C4A07"/>
<path d="M16.1887 47.6814C14.9037 47.6814 13.6186 47.298 12.5163 46.5292L9.27515 44.7645L12.5163 42.9998C14.7219 41.4642 17.6575 41.4652 19.8612 42.9998L23.1023 44.7645L19.8612 46.5292C18.7588 47.298 17.4738 47.6814 16.1887 47.6814ZM13.323 44.7645L13.6545 44.9524C15.1703 46.0317 17.2082 46.0336 18.7249 44.9524L19.0564 44.7645L18.7249 44.5766C17.2082 43.4983 15.1712 43.4992 13.6545 44.5766L13.323 44.7645Z" fill="#7C4A07"/>
<path d="M0.998743 51.5456C0.743129 51.5456 0.487514 51.4516 0.292808 51.2647C-0.0976027 50.8899 -0.0976027 50.2841 0.292808 49.9093L35.958 15.6708C36.3484 15.296 36.9795 15.296 37.3699 15.6708C37.7603 16.0456 37.7603 16.6514 37.3699 17.0262L1.70468 51.2647C1.50997 51.4516 1.25436 51.5456 0.998743 51.5456Z" fill="#7C4A07"/>
<path d="M36.0559 7.33988C35.8003 7.33988 35.5446 7.24594 35.3499 7.05902C34.9595 6.68423 34.9595 6.07842 35.3499 5.70363L40.9984 0.281096C41.3888 -0.0936986 42.0199 -0.0936986 42.4103 0.281096C42.8007 0.65589 42.8007 1.2617 42.4103 1.63649L36.7618 7.05902C36.5671 7.24594 36.3115 7.33988 36.0559 7.33988Z" fill="#7C4A07"/>
<path d="M40.2924 8.69527C40.0368 8.69527 39.7812 8.60133 39.5865 8.41442C39.1961 8.03962 39.1961 7.43382 39.5865 7.05902L46.6469 0.281096C47.0373 -0.0936985 47.6683 -0.0936985 48.0587 0.281096C48.4491 0.65589 48.4491 1.2617 48.0587 1.63649L40.9984 8.41442C40.8037 8.60133 40.5481 8.69527 40.2924 8.69527Z" fill="#7C4A07"/>
<path d="M45.9409 14.1177C45.6853 14.1177 45.4297 14.0238 45.2349 13.8368C44.8445 13.462 44.8445 12.8562 45.2349 12.4814L52.2953 5.70352C52.6857 5.32873 53.3167 5.32873 53.7072 5.70352C54.0976 6.07831 54.0976 6.68412 53.7072 7.05891L46.6468 13.8368C46.4511 14.0238 46.1965 14.1177 45.9409 14.1177Z" fill="#7C4A07"/>
<path d="M46.6468 8.01757C46.3912 8.01757 46.1356 7.92364 45.9409 7.73672C45.5505 7.36193 45.5505 6.75612 45.9409 6.38133L52.2953 0.281096C52.6857 -0.0936985 53.3167 -0.0936985 53.7072 0.281096C54.0976 0.65589 54.0976 1.2617 53.7072 1.63649L47.3528 7.73672C47.158 7.92364 46.9024 8.01757 46.6468 8.01757Z" fill="#7C4A07"/>
<path d="M47.3527 18.1836C47.0971 18.1836 46.8415 18.0897 46.6468 17.9028C46.2564 17.528 46.2564 16.9222 46.6468 16.5474L52.2953 11.1258C52.6857 10.751 53.3167 10.751 53.7072 11.1258C54.0976 11.5006 54.0976 12.1064 53.7072 12.4812L48.0587 17.9028C47.864 18.0897 47.6084 18.1836 47.3527 18.1836Z" fill="#7C4A07"/>
</svg>
