<svg width="46" height="52" viewBox="0 0 46 52" fill="none" xmlns="http://www.w3.org/2000/svg">
<path d="M41.8808 26.1148C39.9961 16.4137 33.157 9.05099 24.7831 8.14513C25.8327 6.01742 28.4284 2.6152 34.2969 2.13067C34.9063 2.08854 35.3916 1.56188 35.3013 0.982553C35.2561 0.371628 34.6919 -0.0391674 34.0711 0.00296544C26.397 0.656024 23.3724 5.5645 22.3567 8.0714C13.4524 8.39793 6.03778 15.9713 4.07409 26.1253C1.74926 26.5677 0 28.2003 0 30.1701C0 32.4663 2.36997 34.3412 5.30422 34.3412C7.14377 34.3412 8.76889 33.6039 9.72816 32.4979C10.6874 33.6039 12.3126 34.3412 14.1521 34.3412C15.9917 34.3412 17.6168 33.6039 18.5761 32.4979C19.5353 33.6039 21.1604 34.3412 23 34.3412C24.8395 34.3412 26.4647 33.6039 27.4239 32.4979C28.3832 33.6039 30.0083 34.3412 31.8479 34.3412C33.6874 34.3412 35.3126 33.6039 36.2718 32.4979C37.2311 33.6039 38.8562 34.3412 40.6958 34.3412C43.63 34.3412 46 32.4558 46 30.1701C45.9549 28.2003 44.2056 26.5677 41.8808 26.1148Z" fill="#7C4A07"/>
<path d="M31.7913 36.4268C30.2113 36.4268 28.6313 36.016 27.3673 35.2787C26.1372 36.016 24.5572 36.4268 22.9772 36.4268C21.3973 36.4268 19.8173 36.016 18.5533 35.2787C17.278 36.016 15.7432 36.4268 14.1632 36.4268C12.5832 36.4268 11.0032 36.016 9.73925 35.2787C8.73484 35.8474 7.595 36.2582 6.36487 36.3846C8.43013 45.1483 15.0886 51.5735 22.9885 51.5735C30.8884 51.5735 37.5469 45.1483 39.6122 36.3846C38.382 36.2582 37.2422 35.8474 36.2378 35.2787C34.9512 36.0265 33.4164 36.4268 31.7913 36.4268Z" fill="#7C4A07"/>
</svg>
