<svg width="62" height="61" viewBox="0 0 62 61" fill="none" xmlns="http://www.w3.org/2000/svg">
<path d="M18.1722 17.1039C24.6716 17.1039 29.9309 11.8445 29.9309 5.34521C23.4316 5.34509 18.1722 10.6045 18.1722 17.1039Z" fill="#7C4A07"/>
<path d="M23.5175 23.2001C25.7965 29.2868 32.5664 32.3676 38.6531 30.0886C36.3739 24.0019 29.6042 20.9211 23.5175 23.2001Z" fill="#7C4A07"/>
<path d="M37.4729 15.8497C43.2443 12.8609 45.4956 5.77149 42.5056 0C36.7343 2.98995 34.483 10.0783 37.4729 15.8497Z" fill="#7C4A07"/>
<path d="M61.2519 41.8673C62.0794 41.181 62.2471 39.9645 61.6208 39.0912C60.2814 37.2258 59.1707 36.7821 54.5175 39.2291L45.2453 44.8968C42.4114 46.403 34.9756 45.9658 31.7677 45.9658C31.7677 45.9658 39.3382 46.4789 36.3172 41.969C34.8153 39.7263 32.223 38.483 29.5239 38.483H25.3539C22.9231 38.483 20.5265 37.7304 18.5852 36.267C14.056 32.8527 5.34497 39.5519 5.34497 39.5519V58.7934H20.3106C22.4453 58.7934 24.5779 58.632 26.688 58.3113L40.621 56.1926C41.0967 56.1926 41.5586 56.137 42.0054 56.0376C42.0129 56.0365 42.0193 56.0354 42.0268 56.0344C43.1546 55.8762 44.1851 55.3054 45.0082 54.5175L61.2519 41.8673Z" fill="#7C4A07"/>
<path d="M0 60.9319H5.34487V36.3455H0V60.9319Z" fill="#7C4A07"/>
</svg>
