<svg width="59" height="45" viewBox="0 0 59 45" fill="none" xmlns="http://www.w3.org/2000/svg">
<path d="M52.6576 12.0407C52.7018 12.0912 52.7461 12.1398 52.7903 12.1903C52.8072 12.2065 52.8219 12.2246 52.8388 12.2426C52.7777 12.1741 52.7187 12.1074 52.6576 12.0407ZM45.1905 15.6385C44.8113 15.6385 44.4405 15.7539 44.1897 16.0098C43.25 16.9687 42.3293 17.9511 41.3137 18.8506C40.3972 19.6653 39.4659 20.4692 38.562 21.2947C37.6898 22.0878 36.8786 22.9314 35.9979 23.7173C35.5175 24.1445 35.0413 24.5771 34.5378 24.9845C34.0258 25.399 33.478 25.7812 32.9407 26.1723C32.2854 26.6482 32.3718 27.5891 32.9407 28.0758C33.5643 28.6093 34.5378 28.5751 35.1656 28.0758C35.6544 27.6918 36.1664 27.3295 36.6468 26.9402C37.1462 26.5328 37.6266 26.1092 38.1069 25.6802C39.0108 24.8799 39.8304 24.0165 40.6753 23.1712C41.5202 22.3186 42.403 21.5002 43.3027 20.6927C44.3393 19.7626 45.3191 18.7893 46.2904 17.8105C46.5537 17.5437 46.7265 17.2698 46.7265 16.9111C46.7265 16.5758 46.5664 16.2514 46.2904 16.0116C46.0122 15.7719 45.5993 15.6385 45.1905 15.6385ZM58.9953 4.54411C59.0353 4.88298 58.812 5.34442 58.6076 5.62561C58.496 5.78603 58.3716 5.93744 58.2389 6.08705C57.9503 6.4115 57.6511 6.73054 57.3118 7.01714C56.9958 7.28751 56.6755 7.55428 56.3469 7.82105C55.7464 8.30773 55.1396 8.789 54.5222 9.25765C53.8902 9.73531 53.2222 10.1715 52.5586 10.6113C52.2952 10.788 52.0297 10.961 51.7642 11.1359C52.1119 11.4837 52.4595 11.828 52.7924 12.1867C53.1 12.5328 53.3929 12.8861 53.6879 13.2448C54.1556 13.8126 54.3769 14.5246 54.4232 15.2167C54.4548 15.6746 54.3874 16.1126 54.2947 16.5722C54.2378 16.8498 54.1704 17.14 54.0545 17.4068C53.7195 18.1944 53.2749 18.9443 52.8177 19.6833C52.3984 20.3611 51.9265 21.0352 51.3892 21.6516C50.3926 22.8052 49.1937 23.7948 48.0096 24.8006C46.8213 25.8064 45.6414 26.8158 44.4299 27.8018C41.9648 29.8116 39.3795 31.742 36.6805 33.5229C34.7801 34.8099 33.0418 36.2447 31.1982 37.5894C30.4334 38.1481 29.658 38.6871 28.8532 39.2044C28.1621 39.6496 27.4373 40.0642 26.7336 40.495C26.0573 40.906 25.3725 41.3061 24.673 41.69C23.925 42.0974 23.1728 42.5462 22.368 42.8671C21.5168 43.2096 20.6403 43.5178 19.728 43.7269C18.8641 43.9288 17.9918 44.0766 17.1069 44.1955C15.1137 44.4623 13.0658 44.4893 11.0705 44.2154C10.2214 44.0982 9.41441 43.9107 8.59902 43.671C7.72253 43.4078 6.84182 43.1339 6.01379 42.7643C5.23 42.4183 4.4736 42.0145 3.78463 41.535C3.51283 41.344 3.24946 41.1421 2.97556 40.9456C2.6869 40.7401 2.38771 40.5455 2.12645 40.3165C1.40587 39.6839 0.889669 38.9755 0.501989 38.1644C0.36925 37.8904 0.249154 37.6128 0.173303 37.3262C0.0763831 36.9459 -0.0394994 36.5259 0.0131745 36.1383C0.084811 35.5868 0.192266 35.1181 0.480919 34.626C0.788535 34.1033 1.22889 33.7014 1.76195 33.3499C1.91786 33.2471 2.06535 33.1678 2.23812 33.0903C2.42143 33.0074 2.81332 32.8506 3.05773 32.8163C3.35691 32.7749 3.65399 32.728 3.9574 32.737C4.27344 32.7496 4.55788 32.8073 4.85075 32.8938C5.15415 32.9858 5.46598 33.1138 5.75463 33.2435C6.30665 33.4905 6.84814 33.7572 7.40859 33.988C7.77309 34.1033 8.14392 34.2007 8.51474 34.2998C9.00145 34.4314 9.49658 34.5666 10.0001 34.6567C10.1245 34.6603 10.2446 34.6567 10.3668 34.6513C11.3065 34.4963 12.223 34.2295 13.1121 33.9231C14.0223 33.5824 14.8735 33.1372 15.6742 32.6343C17.5725 31.277 19.1928 29.6349 20.7414 27.991C21.5421 27.0772 22.2984 26.1435 23.0548 25.2026C23.8386 24.231 24.6667 23.2829 25.4189 22.2933C25.9224 21.6336 26.4239 20.9685 26.8663 20.2781C27.2856 19.6238 27.6944 18.9677 28.1263 18.317C29.0344 16.9543 29.9699 15.6061 30.8948 14.2542C31.8219 12.9023 32.8985 11.6424 33.9752 10.377C34.7463 9.47034 35.488 8.49158 36.4551 7.72732C36.9186 7.36141 37.4201 6.99911 37.9742 6.74135C38.4988 6.50162 39.0424 6.29253 39.5902 6.10147C40.0833 5.93383 40.5742 5.81487 41.103 5.75178C41.438 5.71032 41.7688 5.69771 42.0996 5.69771C42.3061 5.69771 42.5105 5.70311 42.7191 5.70672C42.9888 5.71393 43.2458 5.77521 43.4713 5.87976C43.5998 5.88697 43.7283 5.89959 43.8631 5.91941C44.4552 6.00233 44.9988 6.22404 45.5361 6.44574C45.8605 6.57913 46.1955 6.70891 46.4968 6.87654C46.8782 7.09284 47.249 7.32717 47.584 7.59394C47.7252 7.44433 47.8685 7.29652 48.0075 7.14692C48.6417 6.39347 49.1895 5.59316 49.6446 4.74779C49.6467 4.74418 49.6488 4.74058 49.651 4.73697C49.9396 4.14575 50.1587 3.5329 50.439 2.93627C50.755 2.26935 51.0753 1.56998 51.5599 0.978758C51.8928 0.578603 52.2636 0.218103 52.8367 0.0721C53.0284 0.0216299 53.2159 0 53.3992 0C53.7532 0 54.0966 0.0847175 54.4443 0.219905C54.7772 0.34608 55.089 0.510108 55.3966 0.677741C56.1046 1.05446 56.802 1.49968 57.4046 1.99897C57.7606 2.29278 58.0725 2.63165 58.3443 2.98494C58.4433 3.11472 58.5402 3.24811 58.6203 3.3851C58.7172 3.55633 58.8246 3.73478 58.8836 3.91503C58.9511 4.12052 58.9742 4.33321 58.9953 4.54411ZM50.8898 15.2654C50.8709 15.1915 50.8498 15.1176 50.8245 15.0437C50.6454 14.7517 50.4179 14.4831 50.1882 14.2163C49.8448 13.8576 49.4803 13.517 49.1242 13.1691C48.7513 12.805 48.3741 12.4715 47.9485 12.1651C47.3607 11.7938 46.7581 11.4369 46.204 11.0277C45.7173 10.6672 45.3359 10.2238 44.8576 9.85608C44.4447 9.61274 44.0064 9.41627 43.5513 9.23962C43.3217 9.16752 43.0941 9.11345 42.8434 9.0774C42.4157 9.01791 42.0006 8.71509 41.7562 8.40326C41.6824 8.40506 41.6087 8.40687 41.5329 8.41227C41.1473 8.48077 40.7807 8.5763 40.4141 8.69707C39.9337 8.87732 39.4723 9.07019 39.034 9.31713C38.5283 9.67763 38.0901 10.0832 37.675 10.5248C37.1209 11.1629 36.5773 11.8064 36.0358 12.4517C35.4564 13.1366 34.8643 13.818 34.3566 14.5426C33.4316 15.8602 32.5488 17.2013 31.6597 18.5369C30.7642 19.8852 29.9804 21.2929 29.0323 22.616C28.0757 23.9516 27.0033 25.2206 25.9603 26.504C24.8647 27.8559 23.7712 29.2185 22.5281 30.4767C21.3967 31.6231 20.2631 32.7929 19.0116 33.8546C17.6716 34.9938 16.1714 35.9761 14.4311 36.6268C13.582 36.9459 12.6992 37.2253 11.8037 37.438C11.5762 37.4884 11.3444 37.5551 11.1126 37.5894C10.6975 37.647 10.253 37.7426 9.82948 37.7029C9.21004 37.6452 8.60956 37.5461 8.00907 37.4055C7.15365 37.2072 6.30455 37.0216 5.49758 36.7115C4.94134 36.4988 4.41039 36.2411 3.8668 36.0122C3.85205 36.0266 3.83519 36.0392 3.82044 36.0536C3.80991 36.0699 3.79727 36.0861 3.78673 36.1041C3.76988 36.1492 3.75302 36.196 3.73827 36.2429C3.73617 36.297 3.73617 36.3528 3.73827 36.4087C3.79727 36.6466 3.87733 36.8774 3.97636 37.1063C4.09856 37.3208 4.23341 37.5245 4.38722 37.7209C4.70115 38.0238 5.04669 38.2887 5.4133 38.5465C5.69142 38.7448 5.96111 38.952 6.23712 39.1521C6.97667 39.6009 7.7752 39.9705 8.60113 40.2949C9.7431 40.6879 10.9061 41.0087 12.124 41.1835C13.563 41.3241 15.0063 41.3494 16.4453 41.2124C17.7811 41.0411 19.0917 40.7798 20.3516 40.3634C21.62 39.8641 22.8083 39.2008 23.9651 38.5321C25.0796 37.8886 26.1963 37.2415 27.273 36.5529C28.5666 35.6679 29.8034 34.7342 31.0465 33.7987C32.435 32.7587 33.834 31.7384 35.2942 30.7723C35.1783 30.848 35.0624 30.9255 34.9465 31.0012C37.4433 29.2906 39.8157 27.4593 42.1397 25.5829C43.3027 24.6456 44.4721 23.7101 45.5972 22.7349C46.5284 21.9292 47.4681 21.1163 48.2983 20.2313C49.1895 19.1768 49.9459 18.0412 50.5696 16.8534C50.715 16.5181 50.8161 16.1774 50.8941 15.8278C50.9046 15.6403 50.9046 15.4528 50.8898 15.2654ZM55.5947 4.48643C55.5294 4.39089 55.4598 4.29716 55.3861 4.20524C55.0679 3.8952 54.7055 3.62122 54.3305 3.35806C54.1767 3.26433 54.0208 3.1742 53.8607 3.08768C53.7111 3.32561 53.5762 3.56895 53.4498 3.8177C53.2412 4.26472 53.0579 4.72255 52.843 5.16957C52.5543 5.75899 52.2467 6.33399 51.8991 6.90178C51.6146 7.36322 51.3155 7.82646 50.9678 8.25726C50.9657 8.26086 50.9615 8.26447 50.9594 8.26807C51.7116 7.76337 52.4427 7.24425 53.1359 6.68367C53.9449 6.03297 54.7624 5.38047 55.4704 4.64505C55.5125 4.59277 55.5546 4.5405 55.5947 4.48643Z" fill="#7C4A07"/>
</svg>
