<svg width="62" height="51" viewBox="0 0 62 51" fill="none" xmlns="http://www.w3.org/2000/svg">
<path d="M53.0403 28.0321C48.8036 28.187 45.608 25.6096 41.7244 24.4352C36.8356 22.9569 31.4332 24.2123 27.3632 27.5222C27.4834 26.6713 27.5671 25.8068 27.6085 24.9283C28.0391 15.7665 24.4466 7.46117 20.1227 0C20.2654 1.2888 20.4631 2.58508 20.5333 3.88193C20.703 7.00907 19.4825 9.85885 17.5946 12.0858C14.8271 15.2574 11.1749 16.1187 7.94429 18.361C1.5157 22.8224 -1.73495 32.3891 0.940051 40.4877C2.65964 45.4875 3.48658 46.7343 3.48658 46.7343C3.48658 46.7343 7.70942 48.3089 15.7355 44.6205C18.2669 43.4571 20.3475 41.5975 20.3475 41.5975C21.5136 42.9158 25.2407 47.1177 30.3257 49.1997C37.4605 52.121 45.0857 50.5053 50.8964 45.0147C57.1533 39.1026 60.1011 30.4832 62 21.8441C59.5269 25.1752 57.2299 27.8784 53.0403 28.0321ZM5.64581 41.8988C10.3608 36.1962 14.2886 30.5627 16.9675 23.3585C17.0749 30.8989 11.6952 38.9434 5.64581 41.8988ZM24.8353 38.6497C31.7713 38.6062 38.1214 37.969 44.6423 35.2345C39.804 40.4838 30.8985 41.5816 24.8353 38.6497Z" fill="#7C4A07"/>
</svg>
